<svg width="16" height="16" viewBox="0 0 16 16" fill="none" xmlns="http://www.w3.org/2000/svg">
<path d="M15.4666 7.46667H8.5333V0.533333C8.5333 0.391885 8.47711 0.256229 8.37709 0.15621C8.27707 0.0561904 8.14142 0 7.99997 0C7.85852 0 7.72287 0.0561904 7.62285 0.15621C7.52283 0.256229 7.46664 0.391885 7.46664 0.533333V7.46667H0.533303C0.391854 7.46667 0.256199 7.52286 0.156179 7.62288C0.0561599 7.7229 -3.05176e-05 7.85855 -3.05176e-05 8C-3.05176e-05 8.14145 0.0561599 8.27711 0.156179 8.37712C0.256199 8.47714 0.391854 8.53333 0.533303 8.53333H7.46664V15.4667C7.46664 15.6081 7.52283 15.7438 7.62285 15.8438C7.72287 15.9438 7.85852 16 7.99997 16C8.14142 16 8.27707 15.9438 8.37709 15.8438C8.47711 15.7438 8.5333 15.6081 8.5333 15.4667V8.53333H15.4666C15.6081 8.53333 15.7437 8.47714 15.8438 8.37712C15.9438 8.27711 16 8.14145 16 8C16 7.85855 15.9438 7.7229 15.8438 7.62288C15.7437 7.52286 15.6081 7.46667 15.4666 7.46667Z" fill="black"/>
</svg>
