<svg width="15" height="16" viewBox="0 0 15 16" fill="none" xmlns="http://www.w3.org/2000/svg">
<path fill-rule="evenodd" clip-rule="evenodd" d="M9.13906 0.163479C9.03438 0.0588052 8.89242 0 8.74438 0C8.59635 0 8.45439 0.0588051 8.34971 0.163479L0.163479 8.34971C0.0588051 8.45439 0 8.59635 0 8.74438V11.7212C0 12.0295 0.249893 12.2793 0.558152 12.2793H3.53496C3.683 12.2793 3.82496 12.2205 3.92964 12.1159L12.1159 3.92964C12.3338 3.71167 12.3338 3.35826 12.1159 3.14029L9.13906 0.163479ZM1.1163 11.163V8.97558L8.74438 1.3475L10.9319 3.53496L3.30377 11.163H1.1163ZM13.9538 14.8837H0.558152C0.249893 14.8837 0 15.1336 0 15.4418C0 15.7501 0.249893 16 0.558152 16H13.9538C14.2621 16 14.512 15.7501 14.512 15.4418C14.512 15.1336 14.2621 14.8837 13.9538 14.8837Z" fill="#76787B"/>
</svg>
