<svg width="20" height="20" viewBox="0 0 20 20" fill="none" xmlns="http://www.w3.org/2000/svg">
<path d="M9.99999 20C15.5228 20 20 15.5228 20 10C20 4.47715 15.5228 -1.35705e-06 9.99999 -8.74228e-07C4.47714 -3.91405e-07 -7.23799e-06 4.47715 -6.75517e-06 10C-6.27234e-06 15.5228 4.47715 20 9.99999 20Z" fill="white"/>
<path d="M9.13043 10C9.13043 10 2.93477 17.0725 2.92891 17.0711C4.73852 18.8807 7.23855 20 10 20C15.5228 20 20 15.5228 20 10L9.13043 10Z" fill="#D80027"/>
<path d="M2.92889 2.92883C-0.976343 6.83407 -0.976342 13.1657 2.92889 17.071C4.54268 15.4572 6.09475 13.9052 9.99999 9.99992L2.92889 2.92883Z" fill="#0052B4"/>
</svg>
