<svg width="20" height="20" viewBox="0 0 20 20" fill="none" xmlns="http://www.w3.org/2000/svg">
<path d="M0.621964 13.4783C2.03489 17.2863 5.70033 20.0001 9.99998 20.0001C14.2996 20.0001 17.9651 17.2863 19.378 13.4783L9.99998 12.6088L0.621964 13.4783Z" fill="#FFDA44"/>
<path d="M9.99998 0C5.70033 0 2.03489 2.71376 0.621964 6.52177L9.99998 7.3913L19.378 6.52173C17.9651 2.71376 14.2996 0 9.99998 0Z" fill="black"/>
<path d="M0.621978 6.52185C0.220024 7.60517 -1.52588e-05 8.77689 -1.52588e-05 10.0001C-1.52588e-05 11.2233 0.220024 12.395 0.621978 13.4784H19.3781C19.78 12.395 20 11.2233 20 10.0001C20 8.77689 19.78 7.60517 19.378 6.52185H0.621978Z" fill="#D80027"/>
</svg>
