<svg width="20" height="20" viewBox="0 0 20 20" fill="none" xmlns="http://www.w3.org/2000/svg">
<path d="M10 20C15.5228 20 20 15.5228 20 10C20 4.47715 15.5228 0 10 0C4.47715 0 0 4.47715 0 10C0 15.5228 4.47715 20 10 20Z" fill="white"/>
<path d="M10 7.39119H19.6555C19.4048 6.46095 19.0237 5.58435 18.5323 4.78247H10V7.39119Z" fill="#338AF3"/>
<path d="M3.77511 17.8261H16.2248C17.1375 17.0992 17.9201 16.2164 18.5322 15.2174H1.46773C2.07988 16.2163 2.86253 17.0992 3.77511 17.8261Z" fill="#338AF3"/>
<path d="M3.47824 2.41956C2.69207 3.09655 2.01242 3.89377 1.46773 4.78268H3.47824V2.41956Z" fill="#338AF3"/>
<path d="M10 9.99995C10 8.98136 10 8.12889 10 7.39124H6.08695V9.99995H3.47824V7.39124H0.344492C0.120313 8.22303 0 9.09733 0 9.99995C0 10.9026 0.120313 11.7769 0.344492 12.6087H19.6555C19.8797 11.7769 20 10.9026 20 9.99995H10Z" fill="#338AF3"/>
<path d="M10 0C8.61138 0 7.28892 0.28332 6.08697 0.794844V4.78262H10C10 3.87199 10 3.0975 10 2.17391H16.2249C14.5167 0.813438 12.3535 0 10 0Z" fill="#338AF3"/>
</svg>
