<svg width="20" height="20" viewBox="0 0 20 20" fill="none" xmlns="http://www.w3.org/2000/svg">
<path d="M0 9.99983C0 14.2994 2.71375 17.9649 6.52168 19.3778L7.39129 9.99979L6.52168 0.621826C2.71375 2.03479 0 5.70019 0 9.99983Z" fill="#6DA544"/>
<path d="M20 10C20 4.47719 15.5228 0 9.99999 0C8.77678 0 7.60503 0.220039 6.52167 0.621992V19.378C7.60503 19.78 8.77678 20 9.99999 20C15.5228 20 20 15.5228 20 10Z" fill="#D80027"/>
<path d="M6.52176 13.4782C8.44274 13.4782 10 11.921 10 9.99997C10 8.07899 8.44274 6.52173 6.52176 6.52173C4.60078 6.52173 3.04352 8.07899 3.04352 9.99997C3.04352 11.921 4.60078 13.4782 6.52176 13.4782Z" fill="#FFDA44"/>
<path d="M4.56525 8.26074V10.4346C4.56525 11.5152 5.44118 12.3912 6.52177 12.3912C7.60235 12.3912 8.47829 11.5152 8.47829 10.4346V8.26074H4.56525Z" fill="#D80027"/>
<path d="M6.52179 11.0869C6.16218 11.0869 5.8696 10.7943 5.8696 10.4347V9.56519H7.17393V10.4348C7.17393 10.7943 6.88136 11.0869 6.52179 11.0869Z" fill="#F0F0F0"/>
</svg>
