<svg width="20" height="20" viewBox="0 0 20 20" fill="none" xmlns="http://www.w3.org/2000/svg">
<path d="M10 20C15.5228 20 20 15.5228 20 10C20 4.47715 15.5228 0 10 0C4.47715 0 0 4.47715 0 10C0 15.5228 4.47715 20 10 20Z" fill="#FFDA44"/>
<path d="M7.82613 8.69566H19.9154C19.2762 3.78914 15.0807 0 10 0C9.25336 0 8.52606 0.0825391 7.8261 0.237695V8.69566H7.82613Z" fill="#0052B4"/>
<path d="M5.21739 8.69567V1.21594C2.47153 2.71415 0.505867 5.46223 0.0846558 8.69571H5.21739V8.69567Z" fill="#0052B4"/>
<path d="M5.21735 11.3042H0.0846558C0.505867 14.5377 2.47153 17.2858 5.21739 18.7839L5.21735 11.3042Z" fill="#0052B4"/>
<path d="M7.8261 11.3042V19.7622C8.52606 19.9173 9.25336 19.9999 10 19.9999C15.0807 19.9999 19.2762 16.2107 19.9154 11.3042H7.8261V11.3042Z" fill="#0052B4"/>
</svg>
