<svg width="20" height="20" viewBox="0 0 20 20" fill="none" xmlns="http://www.w3.org/2000/svg">
<path d="M10 20C15.5228 20 20 15.5228 20 10C20 4.47715 15.5228 0 10 0C4.47715 0 0 4.47715 0 10C0 15.5228 4.47715 20 10 20Z" fill="white"/>
<path d="M10 20C15.5228 20 20 15.5228 20 9.99998C20 8.77677 19.78 7.60501 19.378 6.52173H0.621992C0.220039 7.60501 0 8.77677 0 9.99998C0 15.5228 4.47719 20 10 20Z" fill="#0052B4"/>
<path d="M10 20C14.2997 20 17.9651 17.2863 19.378 13.4783H0.622009C2.03494 17.2863 5.70037 20 10 20Z" fill="#D80027"/>
<path d="M2.58585 5.6521V10.6406C2.58585 13.4783 6.29292 14.3477 6.29292 14.3477C6.29292 14.3477 9.99995 13.4783 9.99995 10.6406V5.6521H2.58585Z" fill="#F0F0F0"/>
<path d="M3.45544 5.6521V10.6406C3.45544 10.9738 3.52943 11.2884 3.67599 11.5833C5.13044 11.5833 7.30435 11.5833 8.90986 11.5833C9.05642 11.2884 9.13041 10.9738 9.13041 10.6406V5.6521H3.45544Z" fill="#D80027"/>
<path d="M8.03201 9.1304H6.72771V8.26083H7.59728V7.39126H6.72771V6.52173H5.85814V7.39126H4.98861V8.26083H5.85814V9.1304H4.55377V9.99997H5.85814V10.8695H6.72771V9.99997H8.03201V9.1304Z" fill="#F0F0F0"/>
<path d="M4.86211 12.7973C5.42246 13.1494 5.99816 13.3539 6.29289 13.4448C6.58762 13.3539 7.16332 13.1494 7.72367 12.7973C8.28875 12.4421 8.68488 12.0359 8.90981 11.5834C8.66172 11.4079 8.35902 11.3044 8.03203 11.3044C7.91297 11.3044 7.79731 11.3185 7.68609 11.3444C7.45043 10.8089 6.91547 10.4348 6.29293 10.4348C5.67039 10.4348 5.13539 10.8089 4.89977 11.3444C4.78856 11.3185 4.67285 11.3044 4.55383 11.3044C4.22684 11.3044 3.92414 11.4079 3.67606 11.5834C3.90086 12.0359 4.29699 12.4421 4.86211 12.7973Z" fill="#0052B4"/>
</svg>
