<svg width="20" height="20" viewBox="0 0 20 20" fill="none" xmlns="http://www.w3.org/2000/svg">
<path d="M10 20C15.5228 20 20 15.5228 20 10C20 4.47715 15.5228 0 10 0C4.47715 0 0 4.47715 0 10C0 15.5228 4.47715 20 10 20Z" fill="white"/>
<path d="M2.06718 3.91174C1.28167 4.93374 0.689365 6.11167 0.344482 7.39131H5.54675L2.06718 3.91174Z" fill="#0052B4"/>
<path d="M19.6555 7.3914C19.3106 6.11179 18.7183 4.93386 17.9328 3.91187L14.4533 7.3914H19.6555Z" fill="#0052B4"/>
<path d="M0.344482 12.6086C0.689404 13.8883 1.28171 15.0662 2.06718 16.0881L5.54663 12.6086H0.344482Z" fill="#0052B4"/>
<path d="M16.0882 2.06722C15.0662 1.28171 13.8883 0.689404 12.6087 0.344482V5.54671L16.0882 2.06722Z" fill="#0052B4"/>
<path d="M3.91179 17.9327C4.93378 18.7182 6.11171 19.3105 7.39132 19.6554V14.4532L3.91179 17.9327Z" fill="#0052B4"/>
<path d="M7.39128 0.344482C6.11167 0.689404 4.93374 1.28171 3.91179 2.06718L7.39128 5.54667V0.344482Z" fill="#0052B4"/>
<path d="M12.6087 19.6554C13.8883 19.3105 15.0662 18.7182 16.0882 17.9327L12.6087 14.4532V19.6554Z" fill="#0052B4"/>
<path d="M14.4533 12.6086L17.9328 16.0882C18.7183 15.0662 19.3106 13.8883 19.6555 12.6086H14.4533Z" fill="#0052B4"/>
<path d="M19.9154 8.69566H11.3044H11.3044V0.0846484C10.8774 0.0290625 10.4421 0 10 0C9.55785 0 9.12262 0.0290625 8.69566 0.0846484V8.69559V8.69563H0.0846484C0.0290625 9.12262 0 9.55793 0 10C0 10.4421 0.0290625 10.8774 0.0846484 11.3043H8.69559H8.69563V19.9154C9.12262 19.9709 9.55785 20 10 20C10.4421 20 10.8774 19.971 11.3043 19.9154V11.3044V11.3044H19.9154C19.9709 10.8774 20 10.4421 20 10C20 9.55793 19.9709 9.12262 19.9154 8.69566Z" fill="#D80027"/>
<path d="M12.6087 12.6088L17.0711 17.0711C17.2763 16.866 17.4721 16.6515 17.6589 16.4292L13.8385 12.6088H12.6087V12.6088Z" fill="#D80027"/>
<path d="M7.39127 12.6088H7.3912L2.9289 17.0711C3.13405 17.2763 3.34855 17.4721 3.57089 17.6589L7.39127 13.8384V12.6088Z" fill="#D80027"/>
<path d="M7.3913 7.39142V7.39135L2.92896 2.92896C2.72373 3.13411 2.52794 3.3486 2.34115 3.57095L6.16158 7.39138H7.3913V7.39142Z" fill="#D80027"/>
<path d="M12.6087 7.39126L17.0711 2.92884C16.8659 2.7236 16.6514 2.52782 16.4291 2.34106L12.6087 6.16149V7.39126Z" fill="#D80027"/>
</svg>
