<svg width="20" height="20" viewBox="0 0 20 20" fill="none" xmlns="http://www.w3.org/2000/svg">
<path d="M10 20C15.5228 20 20 15.5228 20 10C20 4.47715 15.5228 0 10 0C4.47715 0 0 4.47715 0 10C0 15.5228 4.47715 20 10 20Z" fill="white"/>
<path d="M9.56525 9.99993H20C20 9.09736 19.8797 8.22299 19.6555 7.39124H9.56525V9.99993Z" fill="#D80027"/>
<path d="M9.56525 4.78242H18.5323C17.9201 3.78351 17.1374 2.90058 16.2249 2.17371H9.56525V4.78242Z" fill="#D80027"/>
<path d="M10 19.9997C12.3535 19.9997 14.5167 19.1863 16.2249 17.8258H3.77517C5.48337 19.1863 7.64654 19.9997 10 19.9997Z" fill="#D80027"/>
<path d="M1.46777 15.217H18.5323C19.0237 14.4151 19.4049 13.5385 19.6555 12.6083H0.344528C0.595192 13.5385 0.976325 14.4151 1.46777 15.217Z" fill="#D80027"/>
<path d="M4.63219 1.56164H5.54348L4.69583 2.17746L5.01962 3.17391L4.172 2.55809L3.32438 3.17391L3.60407 2.31309C2.85774 2.93477 2.2036 3.66313 1.66454 4.47469H1.95653L1.41696 4.86668C1.3329 5.00691 1.25227 5.14937 1.17501 5.29395L1.43266 6.08695L0.951961 5.7377C0.832469 5.99086 0.723172 6.24973 0.624929 6.51398L0.908797 7.38773H1.95653L1.10887 8.00356L1.43266 9L0.585047 8.38418L0.0773123 8.75309C0.026492 9.1616 7.62939e-06 9.57769 7.62939e-06 10H10C10 4.47719 10 3.82609 10 0C8.02454 0 6.18302 0.573047 4.63219 1.56164ZM5.01962 9L4.172 8.38418L3.32438 9L3.64817 8.00356L2.80052 7.38773H3.84825L4.172 6.39129L4.49575 7.38773H5.54348L4.69583 8.00356L5.01962 9ZM4.69583 5.09051L5.01962 6.08695L4.172 5.47113L3.32438 6.08695L3.64817 5.09051L2.80052 4.47469H3.84825L4.172 3.47824L4.49575 4.47469H5.54348L4.69583 5.09051ZM8.60657 9L7.75895 8.38418L6.91134 9L7.23512 8.00356L6.38747 7.38773H7.4352L7.75895 6.39129L8.0827 7.38773H9.13044L8.28278 8.00356L8.60657 9ZM8.28278 5.09051L8.60657 6.08695L7.75895 5.47113L6.91134 6.08695L7.23512 5.09051L6.38747 4.47469H7.4352L7.75895 3.47824L8.0827 4.47469H9.13044L8.28278 5.09051ZM8.28278 2.17746L8.60657 3.17391L7.75895 2.55809L6.91134 3.17391L7.23512 2.17746L6.38747 1.56164H7.4352L7.75895 0.565195L8.0827 1.56164H9.13044L8.28278 2.17746Z" fill="#0052B4"/>
</svg>
