<svg width="134" height="38" viewBox="0 0 134 38" fill="none" xmlns="http://www.w3.org/2000/svg">
<path fill-rule="evenodd" clip-rule="evenodd" d="M57.5576 15.513C58.9334 15.513 59.8912 16.346 60.0631 17.6445L63.5762 17.3505C63.3551 15.856 62.6672 14.6554 61.5616 13.7733C60.4563 12.8915 59.1297 12.4503 57.5576 12.4503C55.6414 12.4503 54.0693 13.0385 52.8657 14.2145C51.6618 15.3906 51.0478 17.0075 51.0478 19.0408C51.0478 21.0744 51.6618 22.6669 52.8657 23.8675C54.0693 25.0435 55.6414 25.6314 57.5576 25.6314C59.1297 25.6314 60.4563 25.1905 61.5616 24.3329C62.6672 23.4753 63.3304 22.2996 63.5762 20.8051L60.0878 20.4866C59.8912 21.7605 58.9578 22.5444 57.5576 22.5444C55.8627 22.5444 54.6833 21.2214 54.6833 19.0408C54.6833 16.8115 55.8627 15.513 57.5576 15.513ZM32.765 3.44865C29.9344 1.34619 26.0652 0.270713 21.2804 0.0471162C20.645 0.017483 19.996 0.00012207 19.3283 0.00012207C18.5306 0.00012207 17.7571 0.0204762 17.0055 0.0605859C12.7023 0.28957 9.16274 1.18635 6.44674 2.86527C2.44995 5.68761 0.444165 10.5005 0.0674957 16.8803C0.0234655 17.6274 0.000244141 18.3946 0.000244141 19.1839C0.000244141 19.846 0.0180371 20.4899 0.0490995 21.1199C0.344644 27.1418 2.06966 31.6993 5.5209 34.5516C8.3515 36.6541 12.2207 37.7298 17.0055 37.9531C17.6413 37.9828 18.2899 38.0001 18.9576 38.0001C19.7553 38.0001 20.5288 37.9798 21.2804 37.9397C25.5836 37.7107 29.1232 36.8139 31.8395 35.135C35.836 32.3126 37.842 27.4998 38.2184 21.1199C38.2624 20.3728 38.286 19.6057 38.286 18.8163C38.286 18.1542 38.2679 17.5104 38.2368 16.8803C37.9413 10.8585 36.2165 6.30093 32.765 3.44865ZM12.7617 19.0001C12.7617 21.3444 14.0444 23.3909 15.9515 24.4859L12.7605 29.9725C8.94651 27.782 6.38069 23.6885 6.38069 19.0001C6.38069 12.0037 12.095 6.33236 19.1428 6.33236C21.4674 6.33236 23.6471 6.94927 25.5245 8.02804L22.3332 13.5144C21.3947 12.9747 20.3048 12.6664 19.1428 12.6664C15.6186 12.6664 12.7617 15.5019 12.7617 19.0001ZM25.5236 29.9704C23.9979 30.8453 22.0467 30.3266 21.1655 28.8114C20.2906 27.3076 20.8 25.388 22.3006 24.505C22.3205 24.4942 22.3404 24.4829 22.3594 24.4709C23.8818 23.6163 25.8161 24.1389 26.6913 25.6446C27.5728 27.1594 27.0501 29.0964 25.5236 29.9704ZM132.084 14.2633C130.831 13.063 129.21 12.4503 127.244 12.4503C125.279 12.4503 123.658 13.063 122.381 14.2633C121.127 15.4639 120.489 17.0566 120.489 19.0408C120.489 21.0011 121.127 22.5935 122.381 23.8184C123.658 25.019 125.279 25.6314 127.244 25.6314C129.21 25.6314 130.831 25.019 132.084 23.8184C133.361 22.5935 134 21.0011 134 19.0408C134 17.0566 133.361 15.4639 132.084 14.2633ZM129.504 21.6135C128.94 22.226 128.178 22.5444 127.244 22.5444C126.311 22.5444 125.549 22.226 124.984 21.6135C124.419 21.0011 124.125 20.1435 124.125 19.0408C124.125 17.9384 124.419 17.0808 124.984 16.4684C125.549 15.8315 126.311 15.513 127.244 15.513C128.178 15.513 128.94 15.8315 129.504 16.4684C130.07 17.0808 130.364 17.9384 130.364 19.0408C130.364 20.1435 130.07 21.0011 129.504 21.6135ZM65.8907 25.362H69.4774V6.32547H65.8907V25.362ZM116.379 6.39881C114.586 6.30093 113.48 8.84879 114.856 10.0739C115.667 10.8824 117.091 10.8824 117.902 10.0739C118.32 9.65757 118.541 9.14303 118.541 8.55485C118.541 7.35456 117.583 6.39881 116.379 6.39881ZM106.093 20.1435L103.12 12.6954H99.1655L104.644 25.362H107.518L112.996 12.6954H109.041L106.093 20.1435ZM114.586 25.362H118.173V12.6954H114.586V25.362ZM92.7365 12.4503C90.8203 12.4503 89.2726 13.0385 88.069 14.239C86.8651 15.4148 86.2755 17.0075 86.2755 19.0408C86.2755 21.0499 86.8651 22.6423 88.069 23.8429C89.2726 25.0435 90.8691 25.6314 92.8345 25.6314C94.333 25.6314 95.6105 25.2396 96.6913 24.4799C97.7966 23.7205 98.4601 22.716 98.6812 21.5154L95.0701 21.3438C94.7999 22.275 94.0136 22.7405 92.7365 22.7405C91.1396 22.7405 90.1568 21.7605 90.0832 20.1681H98.8042V18.7469C98.8042 16.7869 98.2635 15.2436 97.1582 14.1409C96.0526 13.0139 94.5788 12.4503 92.7365 12.4503ZM90.0832 17.7914C90.1815 16.199 91.1641 15.2436 92.7117 15.2436C94.2839 15.2436 95.1192 16.199 95.1928 17.7914H90.0832ZM78.3872 12.4503C76.471 12.4503 74.9233 13.0385 73.7197 14.239C72.5161 15.4148 71.9265 17.0075 71.9265 19.0408C71.9265 21.0499 72.5161 22.6423 73.7197 23.8429C74.9233 25.0435 76.5201 25.6314 78.4855 25.6314C79.984 25.6314 81.2612 25.2396 82.342 24.4799C83.4476 23.7205 84.1108 22.716 84.3321 21.5154L80.7208 21.3438C80.4506 22.275 79.6646 22.7405 78.3872 22.7405C76.7903 22.7405 75.8078 21.7605 75.7339 20.1681H84.4549V18.7469C84.4549 16.7869 83.9145 15.2436 82.8089 14.1409C81.7036 13.0139 80.2295 12.4503 78.3872 12.4503ZM75.7339 17.7914C75.8322 16.199 76.8151 15.2436 78.3624 15.2436C79.9349 15.2436 80.7699 16.199 80.8438 17.7914H75.7339Z" fill="#1C252B"/>
</svg>
